STARTFONT 2.1
COMMENT This font is still under development.
COMMENT You can use, copy, modify, distribute this file for free.
COMMENT
COMMENT This font was created by modifying fg-20.bdf distributed with
COMMENT X.V11R3 under the directory contrib/fonts/bdf/oldx11.
COMMENT The comment below is the original one.
COMMENT -------------------------------------------------------------
COMMENT the Lisp Machine name for this font was "20fg.ast"
COMMENT -------------------------------------------------------------
COMMENT 91.12.14 modified by K.Handa <handa@etl.go.jp>
COMMENT   - ISO8859-1 Latin-1 glyphs are added.
COMMENT This font is very suitable when used with:
COMMENT   -jis-fixed-medium-r-normal--24-230-75-75-c-240-jisx0208.1983-0
COMMENT 92.06.23 modified by Takahashi N. <ntakahas@etl.go.jp>
COMMENT 92.07.09 modified by Takahashi N. <ntakahas@etl.go.jp>
COMMENT   - all BBX are changed to 12 24 0 -2
COMMENT 94.09.14 modified by Takahashi N. <ntakahas@etl.go.jp>
COMMENT 99.01.18 modified from etl24-latin1.bdf by <handa@etl.go.jp>
FONT -Etl-Fixed-Bold-R-Normal--24-240-72-72-C-120-ISO8859-1
SIZE 24 72 72
FONTBOUNDINGBOX 12 24 0 -2
STARTPROPERTIES 19
FONTNAME_REGISTRY ""
FOUNDRY "ETL"
FAMILY_NAME "Fixed"
WEIGHT_NAME "Bold"
SLANT "R"
SETWIDTH_NAME "Normal"
ADD_STYLE_NAME ""
PIXEL_SIZE 24
POINT_SIZE 240
RESOLUTION_X 72
RESOLUTION_Y 72
SPACING "C"
AVERAGE_WIDTH 120
CHARSET_REGISTRY "ISO8859"
CHARSET_ENCODING "1"
DEFAULT_CHAR 32
FONT_DESCENT 2
FONT_ASCENT 22
_MULE_BASELINE_OFFSET -3
ENDPROPERTIES
CHARS 191
STARTCHAR SPACE
ENCODING 32
SWIDTH 500 0
DWIDTH 12 0
BBX 12 24 0 -2
BITMAP
0000
0000
0000
0000
0000
0000
0000
0000
0000
0000
0000
0000
0000
0000
0000
0000
0000
0000
0000
0000
0000
0000
0000
0000
ENDCHAR
STARTCHAR EXCLAMATION MARK
ENCODING 33
SWIDTH 500 0
DWIDTH 12 0
BBX 12 24 0 -2
BITMAP
0000
0000
0000
0000
0000
0700
0700
0700
0700
0700
0700
0700
0700
0700
0700
0000
0000
0700
0f80
0700
0000
0000
0000
0000
ENDCHAR
STARTCHAR QUOTATION MARK
ENCODING 34
SWIDTH 500 0
DWIDTH 12 0
BBX 12 24 0 -2
BITMAP
0000
0000
0000
0000
1dc0
1dc0
1dc0
1dc0
1dc0
0000
0000
0000
0000
0000
0000
0000
0000
0000
0000
0000
0000
0000
0000
0000
ENDCHAR
STARTCHAR NUMBER SIGN
ENCODING 35
SWIDTH 500 0
DWIDTH 12 0
BBX 12 24 0 -2
BITMAP
0000
0000
0000
0000
0000
0ee0
0ee0
0ee0
3ff0
3ff0
1dc0
1dc0
1dc0
1dc0
7fe0
7fe0
3b80
3b80
3b80
0000
0000
0000
0000
0000
ENDCHAR
STARTCHAR DOLLAR SIGN
ENCODING 36
SWIDTH 500 0
DWIDTH 12 0
BBX 12 24 0 -2
BITMAP
0000
0000
0000
0000
0000
0700
1fc0
3ff0
7770
7700
3f00
1fc0
07e0
0770
0770
7770
7fe0
3fc0
0700
0000
0000
0000
0000
0000
ENDCHAR
STARTCHAR PERCENT SIGN
ENCODING 37
SWIDTH 500 0
DWIDTH 12 0
BBX 12 24 0 -2
BITMAP
0000
0000
0000
0000
0000
3ce0
7ee0
7fc0
7fc0
3f80
0380
0700
0700
0e00
0fe0
1ff0
1ff0
3bf0
39e0
0000
0000
0000
0000
0000
ENDCHAR
STARTCHAR AMPERSAND
ENCODING 38
SWIDTH 500 0
DWIDTH 12 0
BBX 12 24 0 -2
BITMAP
0000
0000
0000
0000
0000
0780
0fc0
1fe0
1ce0
1dc0
0fc0
1f80
3f00
7bf0
71f0
71e0
71c0
3ff0
1f70
0000
0000
0000
0000
0000
ENDCHAR
STARTCHAR APOSTROPHE
ENCODING 39
SWIDTH 500 0
DWIDTH 12 0
BBX 12 24 0 -2
BITMAP
0000
0000
0000
0700
0f80
0f80
0380
0380
0700
0e00
0000
0000
0000
0000
0000
0000
0000
0000
0000
0000
0000
0000
0000
0000
ENDCHAR
STARTCHAR LEFT PARENTHESIS
ENCODING 40
SWIDTH 500 0
DWIDTH 12 0
BBX 12 24 0 -2
BITMAP
0000
0000
0000
0000
0000
01c0
0380
0780
0700
0f00
0e00
0e00
0e00
0e00
0f00
0700
0780
0380
01c0
0000
0000
0000
0000
0000
ENDCHAR
STARTCHAR RIGHT PARENTHESIS
ENCODING 41
SWIDTH 500 0
DWIDTH 12 0
BBX 12 24 0 -2
BITMAP
0000
0000
0000
0000
0000
1c00
0e00
0f00
0700
0780
0380
0380
0380
0380
0780
0700
0f00
0e00
1c00
0000
0000
0000
0000
0000
ENDCHAR
STARTCHAR ASTERISK
ENCODING 42
SWIDTH 500 0
DWIDTH 12 0
BBX 12 24 0 -2
BITMAP
0000
0000
0000
0000
0000
0000
0000
0700
0700
7770
7ff0
1fc0
0700
1fc0
7ff0
7770
0700
0700
0000
0000
0000
0000
0000
0000
ENDCHAR
STARTCHAR PLUS SIGN
ENCODING 43
SWIDTH 500 0
DWIDTH 12 0
BBX 12 24 0 -2
BITMAP
0000
0000
0000
0000
0000
0000
0000
0000
0700
0700
0700
0700
7ff0
7ff0
0700
0700
0700
0700
0000
0000
0000
0000
0000
0000
ENDCHAR
STARTCHAR COMMA
ENCODING 44
SWIDTH 500 0
DWIDTH 12 0
BBX 12 24 0 -2
BITMAP
0000
0000
0000
0000
0000
0000
0000
0000
0000
0000
0000
0000
0000
0000
0000
0700
0f80
0f80
0380
0380
0700
0e00
0000
0000
ENDCHAR
STARTCHAR HYPHEN, MINUS SIGN
ENCODING 45
SWIDTH 500 0
DWIDTH 12 0
BBX 12 24 0 -2
BITMAP
0000
0000
0000
0000
0000
0000
0000
0000
0000
0000
0000
0000
7ff0
7ff0
0000
0000
0000
0000
0000
0000
0000
0000
0000
0000
ENDCHAR
STARTCHAR FULL STOP
ENCODING 46
SWIDTH 500 0
DWIDTH 12 0
BBX 12 24 0 -2
BITMAP
0000
0000
0000
0000
0000
0000
0000
0000
0000
0000
0000
0000
0000
0000
0000
0700
0f80
0f80
0700
0000
0000
0000
0000
0000
ENDCHAR
STARTCHAR SOLIDUS
ENCODING 47
SWIDTH 500 0
DWIDTH 12 0
BBX 12 24 0 -2
BITMAP
0000
0000
0000
0000
0000
00e0
00e0
01c0
01c0
0380
0380
0700
0700
0e00
0e00
1c00
1c00
3800
3800
0000
0000
0000
0000
0000
ENDCHAR
STARTCHAR DIGIT ZERO
ENCODING 48
SWIDTH 500 0
DWIDTH 12 0
BBX 12 24 0 -2
BITMAP
0000
0000
0000
0000
0000
0f80
1fc0
3de0
38e0
39e0
3be0
3fe0
3ee0
3ce0
38e0
38e0
3de0
1fc0
0f80
0000
0000
0000
0000
0000
ENDCHAR
STARTCHAR DIGIT ONE
ENCODING 49
SWIDTH 500 0
DWIDTH 12 0
BBX 12 24 0 -2
BITMAP
0000
0000
0000
0000
0000
0700
0f00
1f00
3f00
0700
0700
0700
0700
0700
0700
0700
0700
3fe0
3fe0
0000
0000
0000
0000
0000
ENDCHAR
STARTCHAR DIGIT TWO
ENCODING 50
SWIDTH 500 0
DWIDTH 12 0
BBX 12 24 0 -2
BITMAP
0000
0000
0000
0000
0000
1f80
3fc0
71e0
70e0
00e0
01c0
0380
0700
0e00
1c00
3800
7000
7fe0
7fe0
0000
0000
0000
0000
0000
ENDCHAR
STARTCHAR DIGIT THREE
ENCODING 51
SWIDTH 500 0
DWIDTH 12 0
BBX 12 24 0 -2
BITMAP
0000
0000
0000
0000
0000
1f80
3fc0
71e0
70e0
00e0
01c0
0f80
0fc0
00e0
00e0
70e0
71e0
3fc0
1f80
0000
0000
0000
0000
0000
ENDCHAR
STARTCHAR DIGIT FOUR
ENCODING 52
SWIDTH 500 0
DWIDTH 12 0
BBX 12 24 0 -2
BITMAP
0000
0000
0000
0000
0000
0700
0700
0e00
0e00
1f80
1f80
3b80
3b80
7380
7fe0
7fe0
0380
0380
0380
0000
0000
0000
0000
0000
ENDCHAR
STARTCHAR DIGIT FIVE
ENCODING 53
SWIDTH 500 0
DWIDTH 12 0
BBX 12 24 0 -2
BITMAP
0000
0000
0000
0000
0000
7fc0
7fc0
7000
7000
7000
7f80
7fc0
01e0
00e0
00e0
70e0
71e0
3fc0
1f80
0000
0000
0000
0000
0000
ENDCHAR
STARTCHAR DIGIT SIX
ENCODING 54
SWIDTH 500 0
DWIDTH 12 0
BBX 12 24 0 -2
BITMAP
0000
0000
0000
0000
0000
1f80
3fc0
78e0
70e0
7000
7f80
7fc0
79e0
70e0
70e0
70e0
79e0
3fc0
1f80
0000
0000
0000
0000
0000
ENDCHAR
STARTCHAR DIGIT SEVEN
ENCODING 55
SWIDTH 500 0
DWIDTH 12 0
BBX 12 24 0 -2
BITMAP
0000
0000
0000
0000
0000
7fe0
7fe0
01c0
01c0
0380
0380
0700
0700
0e00
0e00
1c00
1c00
3800
3800
0000
0000
0000
0000
0000
ENDCHAR
STARTCHAR DIGIT EIGHT
ENCODING 56
SWIDTH 500 0
DWIDTH 12 0
BBX 12 24 0 -2
BITMAP
0000
0000
0000
0000
0000
0f80
1fc0
38e0
38e0
38e0
1fc0
1fc0
3de0
78f0
7070
7070
78f0
3fe0
1fc0
0000
0000
0000
0000
0000
ENDCHAR
STARTCHAR DIGIT NINE
ENCODING 57
SWIDTH 500 0
DWIDTH 12 0
BBX 12 24 0 -2
BITMAP
0000
0000
0000
0000
0000
1f80
3fc0
79e0
70e0
70e0
79e0
3fe0
1fe0
00e0
00e0
70e0
71e0
3fc0
1f80
0000
0000
0000
0000
0000
ENDCHAR
STARTCHAR COLON
ENCODING 58
SWIDTH 500 0
DWIDTH 12 0
BBX 12 24 0 -2
BITMAP
0000
0000
0000
0000
0000
0000
0000
0000
0700
0f80
0f80
0700
0000
0000
0000
0700
0f80
0f80
0700
0000
0000
0000
0000
0000
ENDCHAR
STARTCHAR SEMICOLON
ENCODING 59
SWIDTH 500 0
DWIDTH 12 0
BBX 12 24 0 -2
BITMAP
0000
0000
0000
0000
0000
0000
0000
0000
0700
0f80
0f80
0700
0000
0000
0000
0700
0f80
0f80
0380
0380
0700
0e00
0000
0000
ENDCHAR
STARTCHAR LESS-THAN SIGN
ENCODING 60
SWIDTH 500 0
DWIDTH 12 0
BBX 12 24 0 -2
BITMAP
0000
0000
0000
0000
0000
0000
0000
0000
0070
01e0
0780
1f00
7c00
7c00
1f00
07c0
01e0
0070
0000
0000
0000
0000
0000
0000
ENDCHAR
STARTCHAR EQUALS SIGN
ENCODING 61
SWIDTH 500 0
DWIDTH 12 0
BBX 12 24 0 -2
BITMAP
0000
0000
0000
0000
0000
0000
0000
0000
0000
0000
7ff0
7ff0
0000
0000
7ff0
7ff0
0000
0000
0000
0000
0000
0000
0000
0000
ENDCHAR
STARTCHAR GREATER-THAN SIGN
ENCODING 62
SWIDTH 500 0
DWIDTH 12 0
BBX 12 24 0 -2
BITMAP
0000
0000
0000
0000
0000
0000
0000
0000
7000
3c00
0f00
07c0
01f0
01f0
07c0
0f00
3c00
7000
0000
0000
0000
0000
0000
0000
ENDCHAR
STARTCHAR QUESTION MARK
ENCODING 63
SWIDTH 500 0
DWIDTH 12 0
BBX 12 24 0 -2
BITMAP
0000
0000
0000
0000
0000
0f80
1fc0
3de0
30e0
00e0
01c0
0380
0700
0700
0700
0000
0000
0700
0f80
0700
0000
0000
0000
0000
ENDCHAR
STARTCHAR COMMERCIAL AT
ENCODING 64
SWIDTH 500 0
DWIDTH 12 0
BBX 12 24 0 -2
BITMAP
0000
0000
0000
0000
0000
1f80
3fc0
78e0
70e0
77e0
7fe0
7ee0
7ee0
7ee0
7fe0
77c0
7800
3fe0
1fe0
0000
0000
0000
0000
0000
ENDCHAR
STARTCHAR CAPITAL LETTER A
ENCODING 65
SWIDTH 500 0
DWIDTH 12 0
BBX 12 24 0 -2
BITMAP
0000
0000
0000
0000
0000
1f80
3fc0
79e0
70e0
70e0
70e0
7fe0
7fe0
70e0
70e0
70e0
70e0
70e0
70e0
0000
0000
0000
0000
0000
ENDCHAR
STARTCHAR CAPITAL LETTER B
ENCODING 66
SWIDTH 500 0
DWIDTH 12 0
BBX 12 24 0 -2
BITMAP
0000
0000
0000
0000
0000
7f00
7f80
73c0
71c0
71c0
7380
7f80
7fc0
71c0
70e0
70e0
71e0
7fc0
7f80
0000
0000
0000
0000
0000
ENDCHAR
STARTCHAR CAPITAL LETTER C
ENCODING 67
SWIDTH 500 0
DWIDTH 12 0
BBX 12 24 0 -2
BITMAP
0000
0000
0000
0000
0000
1f80
3fc0
79e0
70e0
7000
7000
7000
7000
7000
7000
70e0
79e0
3fc0
1f80
0000
0000
0000
0000
0000
ENDCHAR
STARTCHAR CAPITAL LETTER D
ENCODING 68
SWIDTH 500 0
DWIDTH 12 0
BBX 12 24 0 -2
BITMAP
0000
0000
0000
0000
0000
7f80
7fc0
71e0
70e0
70e0
70e0
70e0
70e0
70e0
70e0
70e0
71e0
7fc0
7f80
0000
0000
0000
0000
0000
ENDCHAR
STARTCHAR CAPITAL LETTER E
ENCODING 69
SWIDTH 500 0
DWIDTH 12 0
BBX 12 24 0 -2
BITMAP
0000
0000
0000
0000
0000
7fe0
7fe0
7000
7000
7000
7000
7f80
7f80
7000
7000
7000
7000
7fe0
7fe0
0000
0000
0000
0000
0000
ENDCHAR
STARTCHAR CAPITAL LETTER F
ENCODING 70
SWIDTH 500 0
DWIDTH 12 0
BBX 12 24 0 -2
BITMAP
0000
0000
0000
0000
0000
7fe0
7fe0
7000
7000
7000
7000
7f80
7f80
7000
7000
7000
7000
7000
7000
0000
0000
0000
0000
0000
ENDCHAR
STARTCHAR CAPITAL LETTER G
ENCODING 71
SWIDTH 500 0
DWIDTH 12 0
BBX 12 24 0 -2
BITMAP
0000
0000
0000
0000
0000
1f80
3fc0
79e0
70e0
7000
7000
7000
73e0
73e0
70e0
70e0
79e0
3fc0
1f80
0000
0000
0000
0000
0000
ENDCHAR
STARTCHAR CAPITAL LETTER H
ENCODING 72
SWIDTH 500 0
DWIDTH 12 0
BBX 12 24 0 -2
BITMAP
0000
0000
0000
0000
0000
70e0
70e0
70e0
70e0
70e0
70e0
7fe0
7fe0
70e0
70e0
70e0
70e0
70e0
70e0
0000
0000
0000
0000
0000
ENDCHAR
STARTCHAR CAPITAL LETTER I
ENCODING 73
SWIDTH 500 0
DWIDTH 12 0
BBX 12 24 0 -2
BITMAP
0000
0000
0000
0000
0000
3f80
3f80
0e00
0e00
0e00
0e00
0e00
0e00
0e00
0e00
0e00
0e00
3f80
3f80
0000
0000
0000
0000
0000
ENDCHAR
STARTCHAR CAPITAL LETTER J
ENCODING 74
SWIDTH 500 0
DWIDTH 12 0
BBX 12 24 0 -2
BITMAP
0000
0000
0000
0000
0000
00e0
00e0
00e0
00e0
00e0
00e0
00e0
00e0
00e0
00e0
70e0
71e0
3fc0
1f80
0000
0000
0000
0000
0000
ENDCHAR
STARTCHAR CAPITAL LETTER K
ENCODING 75
SWIDTH 500 0
DWIDTH 12 0
BBX 12 24 0 -2
BITMAP
0000
0000
0000
0000
0000
70e0
71c0
7380
7700
7e00
7c00
7800
7c00
7e00
7700
7380
71c0
70e0
7060
0000
0000
0000
0000
0000
ENDCHAR
STARTCHAR CAPITAL LETTER L
ENCODING 76
SWIDTH 500 0
DWIDTH 12 0
BBX 12 24 0 -2
BITMAP
0000
0000
0000
0000
0000
7000
7000
7000
7000
7000
7000
7000
7000
7000
7000
7000
7000
7fe0
7fe0
0000
0000
0000
0000
0000
ENDCHAR
STARTCHAR CAPITAL LETTER M
ENCODING 77
SWIDTH 500 0
DWIDTH 12 0
BBX 12 24 0 -2
BITMAP
0000
0000
0000
0000
0000
70e0
79e0
79e0
7fe0
7fe0
7fe0
7fe0
76e0
70e0
70e0
70e0
70e0
70e0
70e0
0000
0000
0000
0000
0000
ENDCHAR
STARTCHAR CAPITAL LETTER N
ENCODING 78
SWIDTH 500 0
DWIDTH 12 0
BBX 12 24 0 -2
BITMAP
0000
0000
0000
0000
0000
70e0
78e0
78e0
7ce0
7ce0
7ee0
7ee0
77e0
77e0
73e0
73e0
71e0
71e0
70e0
0000
0000
0000
0000
0000
ENDCHAR
STARTCHAR CAPITAL LETTER O
ENCODING 79
SWIDTH 500 0
DWIDTH 12 0
BBX 12 24 0 -2
BITMAP
0000
0000
0000
0000
0000
1f80
3fc0
79e0
70e0
70e0
70e0
70e0
70e0
70e0
70e0
70e0
79e0
3fc0
1f80
0000
0000
0000
0000
0000
ENDCHAR
STARTCHAR CAPITAL LETTER P
ENCODING 80
SWIDTH 500 0
DWIDTH 12 0
BBX 12 24 0 -2
BITMAP
0000
0000
0000
0000
0000
7f80
7fc0
71e0
70e0
70e0
71e0
7fc0
7f80
7000
7000
7000
7000
7000
7000
0000
0000
0000
0000
0000
ENDCHAR
STARTCHAR CAPITAL LETTER Q
ENCODING 81
SWIDTH 500 0
DWIDTH 12 0
BBX 12 24 0 -2
BITMAP
0000
0000
0000
0000
0000
1f80
3fc0
79e0
70e0
70e0
70e0
70e0
70e0
70e0
70e0
73e0
7be0
3fc0
1fe0
0060
0000
0000
0000
0000
ENDCHAR
STARTCHAR CAPITAL LETTER R
ENCODING 82
SWIDTH 500 0
DWIDTH 12 0
BBX 12 24 0 -2
BITMAP
0000
0000
0000
0000
0000
7f80
7fc0
71e0
70e0
70e0
71e0
7fc0
7f80
7380
7380
71c0
71c0
70e0
70e0
0000
0000
0000
0000
0000
ENDCHAR
STARTCHAR CAPITAL LETTER S
ENCODING 83
SWIDTH 500 0
DWIDTH 12 0
BBX 12 24 0 -2
BITMAP
0000
0000
0000
0000
0000
1f80
3fc0
71e0
70e0
7000
7800
3f80
1fc0
01e0
00e0
70e0
71e0
7fc0
3f80
0000
0000
0000
0000
0000
ENDCHAR
STARTCHAR CAPITAL LETTER T
ENCODING 84
SWIDTH 500 0
DWIDTH 12 0
BBX 12 24 0 -2
BITMAP
0000
0000
0000
0000
0000
7ff0
7ff0
0700
0700
0700
0700
0700
0700
0700
0700
0700
0700
0700
0700
0000
0000
0000
0000
0000
ENDCHAR
STARTCHAR CAPITAL LETTER U
ENCODING 85
SWIDTH 500 0
DWIDTH 12 0
BBX 12 24 0 -2
BITMAP
0000
0000
0000
0000
0000
70e0
70e0
70e0
70e0
70e0
70e0
70e0
70e0
70e0
70e0
70e0
79e0
3fc0
1f80
0000
0000
0000
0000
0000
ENDCHAR
STARTCHAR CAPITAL LETTER V
ENCODING 86
SWIDTH 500 0
DWIDTH 12 0
BBX 12 24 0 -2
BITMAP
0000
0000
0000
0000
0000
7070
7070
7070
38e0
38e0
38e0
1dc0
1dc0
1dc0
0d80
0f80
0f80
0700
0700
0000
0000
0000
0000
0000
ENDCHAR
STARTCHAR CAPITAL LETTER W
ENCODING 87
SWIDTH 500 0
DWIDTH 12 0
BBX 12 24 0 -2
BITMAP
0000
0000
0000
0000
0000
70e0
70e0
70e0
70e0
70e0
70e0
76e0
7fe0
7fe0
7fe0
7fe0
79e0
79e0
70e0
0000
0000
0000
0000
0000
ENDCHAR
STARTCHAR CAPITAL LETTER X
ENCODING 88
SWIDTH 500 0
DWIDTH 12 0
BBX 12 24 0 -2
BITMAP
0000
0000
0000
0000
0000
70e0
70e0
39c0
39c0
1f80
1f80
0f00
0f00
1f80
1f80
39c0
39c0
70e0
70e0
0000
0000
0000
0000
0000
ENDCHAR
STARTCHAR CAPITAL LETTER Y
ENCODING 89
SWIDTH 500 0
DWIDTH 12 0
BBX 12 24 0 -2
BITMAP
0000
0000
0000
0000
0000
7070
7070
38e0
38e0
1dc0
1fc0
0f80
0700
0700
0700
0700
0700
0700
0700
0000
0000
0000
0000
0000
ENDCHAR
STARTCHAR CAPITAL LETTER Z
ENCODING 90
SWIDTH 500 0
DWIDTH 12 0
BBX 12 24 0 -2
BITMAP
0000
0000
0000
0000
0000
7ff0
7ff0
0070
00f0
01e0
03c0
0780
0f00
1e00
3c00
7800
7000
7ff0
7ff0
0000
0000
0000
0000
0000
ENDCHAR
STARTCHAR LEFT SQUARE BRACKET
ENCODING 91
SWIDTH 500 0
DWIDTH 12 0
BBX 12 24 0 -2
BITMAP
0000
0000
0000
0000
1f80
1f80
1c00
1c00
1c00
1c00
1c00
1c00
1c00
1c00
1c00
1c00
1c00
1f80
1f80
0000
0000
0000
0000
0000
ENDCHAR
STARTCHAR REVERSE SOLIDUS
ENCODING 92
SWIDTH 500 0
DWIDTH 12 0
BBX 12 24 0 -2
BITMAP
0000
0000
0000
0000
0000
3800
3800
1c00
1c00
0e00
0e00
0700
0700
0380
0380
01c0
01c0
00e0
00e0
0000
0000
0000
0000
0000
ENDCHAR
STARTCHAR RIGHT SQUARE BRACKET
ENCODING 93
SWIDTH 500 0
DWIDTH 12 0
BBX 12 24 0 -2
BITMAP
0000
0000
0000
0000
1f80
1f80
0380
0380
0380
0380
0380
0380
0380
0380
0380
0380
0380
1f80
1f80
0000
0000
0000
0000
0000
ENDCHAR
STARTCHAR CIRCUMFLEX ACCENT
ENCODING 94
SWIDTH 500 0
DWIDTH 12 0
BBX 12 24 0 -2
BITMAP
0000
0000
0000
0000
0600
0f00
1f80
39c0
70e0
0000
0000
0000
0000
0000
0000
0000
0000
0000
0000
0000
0000
0000
0000
0000
ENDCHAR
STARTCHAR LOW LINE
ENCODING 95
SWIDTH 500 0
DWIDTH 12 0
BBX 12 24 0 -2
BITMAP
0000
0000
0000
0000
0000
0000
0000
0000
0000
0000
0000
0000
0000
0000
0000
0000
0000
0000
0000
0000
fff0
fff0
0000
0000
ENDCHAR
STARTCHAR GRAVE ACCENT
ENCODING 96
SWIDTH 500 0
DWIDTH 12 0
BBX 12 24 0 -2
BITMAP
0000
0000
0000
0380
0700
0e00
0e00
0f80
0f80
0700
0000
0000
0000
0000
0000
0000
0000
0000
0000
0000
0000
0000
0000
0000
ENDCHAR
STARTCHAR SMALL LETTER a
ENCODING 97
SWIDTH 500 0
DWIDTH 12 0
BBX 12 24 0 -2
BITMAP
0000
0000
0000
0000
0000
0000
0000
0000
0f80
1fc0
38e0
00e0
0fe0
3fe0
70e0
71e0
73e0
7fe0
3ee0
0000
0000
0000
0000
0000
ENDCHAR
STARTCHAR SMALL LETTER b
ENCODING 98
SWIDTH 500 0
DWIDTH 12 0
BBX 12 24 0 -2
BITMAP
0000
0000
0000
0000
0000
7000
7000
7000
7000
7780
7fc0
7de0
78e0
70e0
70e0
78e0
7de0
7fc0
7780
0000
0000
0000
0000
0000
ENDCHAR
STARTCHAR SMALL LETTER c
ENCODING 99
SWIDTH 500 0
DWIDTH 12 0
BBX 12 24 0 -2
BITMAP
0000
0000
0000
0000
0000
0000
0000
0000
0000
1fc0
3fc0
78e0
70e0
7000
7000
7000
78e0
3fe0
1fc0
0000
0000
0000
0000
0000
ENDCHAR
STARTCHAR SMALL LETTER d
ENCODING 100
SWIDTH 500 0
DWIDTH 12 0
BBX 12 24 0 -2
BITMAP
0000
0000
0000
0000
0000
00e0
00e0
00e0
00e0
1fe0
3fe0
79e0
70e0
70e0
70e0
71e0
73e0
3fe0
1ee0
0000
0000
0000
0000
0000
ENDCHAR
STARTCHAR SMALL LETTER e
ENCODING 101
SWIDTH 500 0
DWIDTH 12 0
BBX 12 24 0 -2
BITMAP
0000
0000
0000
0000
0000
0000
0000
0000
0000
1f80
3fc0
78e0
70e0
7fe0
7fe0
7000
70e0
3fe0
1fc0
0000
0000
0000
0000
0000
ENDCHAR
STARTCHAR SMALL LETTER f
ENCODING 102
SWIDTH 500 0
DWIDTH 12 0
BBX 12 24 0 -2
BITMAP
0000
0000
0000
0000
0000
0780
0f80
0e00
0e00
0e00
3f80
3f80
0e00
0e00
0e00
0e00
0e00
0e00
0e00
0000
0000
0000
0000
0000
ENDCHAR
STARTCHAR SMALL LETTER g
ENCODING 103
SWIDTH 500 0
DWIDTH 12 0
BBX 12 24 0 -2
BITMAP
0000
0000
0000
0000
0000
0000
0000
0000
0000
1ee0
3fe0
7be0
71e0
70e0
70e0
70e0
79e0
3fe0
1fe0
00e0
00e0
00e0
1fc0
0f80
ENDCHAR
STARTCHAR SMALL LETTER h
ENCODING 104
SWIDTH 500 0
DWIDTH 12 0
BBX 12 24 0 -2
BITMAP
0000
0000
0000
0000
0000
7000
7000
7000
7000
7780
7fc0
7de0
78e0
70e0
70e0
70e0
70e0
70e0
70e0
0000
0000
0000
0000
0000
ENDCHAR
STARTCHAR SMALL LETTER i
ENCODING 105
SWIDTH 500 0
DWIDTH 12 0
BBX 12 24 0 -2
BITMAP
0000
0000
0000
0000
0000
0700
0700
0000
0000
0700
0700
0700
0700
0700
0700
0700
0700
0700
0700
0000
0000
0000
0000
0000
ENDCHAR
STARTCHAR SMALL LETTER j
ENCODING 106
SWIDTH 500 0
DWIDTH 12 0
BBX 12 24 0 -2
BITMAP
0000
0000
0000
0000
0000
0700
0700
0000
0000
0700
0700
0700
0700
0700
0700
0700
0700
0700
0700
0700
0700
3f00
3c00
0000
ENDCHAR
STARTCHAR SMALL LETTER k
ENCODING 107
SWIDTH 500 0
DWIDTH 12 0
BBX 12 24 0 -2
BITMAP
0000
0000
0000
0000
0000
0000
3800
3800
38e0
39e0
3bc0
3f80
3f00
3e00
3f00
3f80
3bc0
39e0
38e0
0000
0000
0000
0000
0000
ENDCHAR
STARTCHAR SMALL LETTER l
ENCODING 108
SWIDTH 500 0
DWIDTH 12 0
BBX 12 24 0 -2
BITMAP
0000
0000
0000
0000
0000
0700
0700
0700
0700
0700
0700
0700
0700
0700
0700
0700
0700
07c0
03c0
0000
0000
0000
0000
0000
ENDCHAR
STARTCHAR SMALL LETTER m
ENCODING 109
SWIDTH 500 0
DWIDTH 12 0
BBX 12 24 0 -2
BITMAP
0000
0000
0000
0000
0000
0000
0000
0000
7000
7fe0
7ff0
7770
7770
7770
7770
7770
7770
7770
7770
0000
0000
0000
0000
0000
ENDCHAR
STARTCHAR SMALL LETTER n
ENCODING 110
SWIDTH 500 0
DWIDTH 12 0
BBX 12 24 0 -2
BITMAP
0000
0000
0000
0000
0000
0000
0000
0000
0000
7780
7fc0
7ce0
78e0
70e0
70e0
70e0
70e0
70e0
70e0
0000
0000
0000
0000
0000
ENDCHAR
STARTCHAR SMALL LETTER o
ENCODING 111
SWIDTH 500 0
DWIDTH 12 0
BBX 12 24 0 -2
BITMAP
0000
0000
0000
0000
0000
0000
0000
0000
0000
1f80
3fc0
79e0
70e0
70e0
70e0
70e0
79e0
3fc0
1f80
0000
0000
0000
0000
0000
ENDCHAR
STARTCHAR SMALL LETTER p
ENCODING 112
SWIDTH 500 0
DWIDTH 12 0
BBX 12 24 0 -2
BITMAP
0000
0000
0000
0000
0000
0000
0000
0000
0000
7780
7fc0
7de0
78e0
70e0
70e0
78e0
7de0
7fc0
7780
7000
7000
7000
7000
0000
ENDCHAR
STARTCHAR SMALL LETTER q
ENCODING 113
SWIDTH 500 0
DWIDTH 12 0
BBX 12 24 0 -2
BITMAP
0000
0000
0000
0000
0000
0000
0000
0000
0000
1ee0
3fe0
7be0
71e0
70e0
70e0
71e0
7be0
3fe0
1ee0
00e0
00e0
00e0
00e0
0000
ENDCHAR
STARTCHAR SMALL LETTER r
ENCODING 114
SWIDTH 500 0
DWIDTH 12 0
BBX 12 24 0 -2
BITMAP
0000
0000
0000
0000
0000
0000
0000
0000
0000
7780
7fc0
7ce0
78e0
7000
7000
7000
7000
7000
7000
0000
0000
0000
0000
0000
ENDCHAR
STARTCHAR SMALL LETTER s
ENCODING 115
SWIDTH 500 0
DWIDTH 12 0
BBX 12 24 0 -2
BITMAP
0000
0000
0000
0000
0000
0000
0000
0000
0000
3fc0
7fe0
7060
7000
3f80
1fc0
00e0
70e0
7fe0
3fc0
0000
0000
0000
0000
0000
ENDCHAR
STARTCHAR SMALL LETTER t
ENCODING 116
SWIDTH 500 0
DWIDTH 12 0
BBX 12 24 0 -2
BITMAP
0000
0000
0000
0000
0000
0000
0e00
0e00
0e00
3f80
3f80
0e00
0e00
0e00
0e00
0e00
0e00
0f80
0780
0000
0000
0000
0000
0000
ENDCHAR
STARTCHAR SMALL LETTER u
ENCODING 117
SWIDTH 500 0
DWIDTH 12 0
BBX 12 24 0 -2
BITMAP
0000
0000
0000
0000
0000
0000
0000
0000
0000
70e0
70e0
70e0
70e0
70e0
70e0
71e0
7be0
3fe0
1ee0
0000
0000
0000
0000
0000
ENDCHAR
STARTCHAR SMALL LETTER v
ENCODING 118
SWIDTH 500 0
DWIDTH 12 0
BBX 12 24 0 -2
BITMAP
0000
0000
0000
0000
0000
0000
0000
0000
0000
7070
7070
38e0
38e0
1dc0
1dc0
0f80
0f80
0700
0700
0000
0000
0000
0000
0000
ENDCHAR
STARTCHAR SMALL LETTER w
ENCODING 119
SWIDTH 500 0
DWIDTH 12 0
BBX 12 24 0 -2
BITMAP
0000
0000
0000
0000
0000
0000
0000
0000
0000
70e0
70e0
70e0
70e0
76e0
7fe0
7fe0
7fe0
79e0
70e0
0000
0000
0000
0000
0000
ENDCHAR
STARTCHAR SMALL LETTER x
ENCODING 120
SWIDTH 500 0
DWIDTH 12 0
BBX 12 24 0 -2
BITMAP
0000
0000
0000
0000
0000
0000
0000
0000
0000
70e0
70e0
39c0
1f80
0f00
0f00
1f80
39c0
70e0
70e0
0000
0000
0000
0000
0000
ENDCHAR
STARTCHAR SMALL LETTER y
ENCODING 121
SWIDTH 500 0
DWIDTH 12 0
BBX 12 24 0 -2
BITMAP
0000
0000
0000
0000
0000
0000
0000
0000
0000
70e0
70e0
70e0
70e0
70e0
70e0
70e0
71e0
3fe0
1fe0
00e0
00e0
00e0
3fc0
1f80
ENDCHAR
STARTCHAR SMALL LETTER z
ENCODING 122
SWIDTH 500 0
DWIDTH 12 0
BBX 12 24 0 -2
BITMAP
0000
0000
0000
0000
0000
0000
0000
0000
0000
7fe0
7fe0
01c0
0380
0700
0e00
1c00
3800
7fe0
7fe0
0000
0000
0000
0000
0000
ENDCHAR
STARTCHAR LEFT CURLY BRACKET
ENCODING 123
SWIDTH 500 0
DWIDTH 12 0
BBX 12 24 0 -2
BITMAP
0000
0000
0000
0000
03c0
0700
0700
0700
0700
0700
0e00
1e00
0e00
0700
0700
0700
0700
0700
03c0
0000
0000
0000
0000
0000
ENDCHAR
STARTCHAR VERTICAL LINE
ENCODING 124
SWIDTH 500 0
DWIDTH 12 0
BBX 12 24 0 -2
BITMAP
0000
0700
0700
0700
0700
0700
0700
0700
0700
0700
0700
0700
0700
0700
0700
0700
0700
0700
0700
0700
0700
0700
0700
0000
ENDCHAR
STARTCHAR RIGHT CURLY BRACKET
ENCODING 125
SWIDTH 500 0
DWIDTH 12 0
BBX 12 24 0 -2
BITMAP
0000
0000
0000
0000
1e00
0700
0700
0700
0700
0700
0380
03c0
0380
0700
0700
0700
0700
0700
1e00
0000
0000
0000
0000
0000
ENDCHAR
STARTCHAR TILDE
ENCODING 126
SWIDTH 500 0
DWIDTH 12 0
BBX 12 24 0 -2
BITMAP
0000
0000
0000
0000
3c60
7ee0
6fe0
e3c0
0000
0000
0000
0000
0000
0000
0000
0000
0000
0000
0000
0000
0000
0000
0000
0000
ENDCHAR
STARTCHAR NO-BREAK SPACE                                                ,A (B
ENCODING 160
SWIDTH 500 0
DWIDTH 12 0
BBX 12 24 0 -2
BITMAP
0000
0000
0000
0000
0000
0000
0000
0000
0000
0000
0000
0000
0000
0000
0000
0000
0000
0000
0000
0000
0000
0000
0000
0000
ENDCHAR
STARTCHAR INVERTED EXCLAMATION MARK
ENCODING 161
SWIDTH 500 0
DWIDTH 12 0
BBX 12 24 0 -2
BITMAP
0000
0000
0000
0000
0700
0f80
0700
0000
0000
0700
0700
0700
0700
0700
0700
0700
0700
0700
0700
0000
0000
0000
0000
0000
ENDCHAR
STARTCHAR CENT SIGN
ENCODING 162
SWIDTH 500 0
DWIDTH 12 0
BBX 12 24 0 -2
BITMAP
0000
0000
0000
0000
0000
0700
0700
1f80
3fc0
7fe0
77e0
7700
7700
77e0
7fe0
3fc0
1f80
0700
0700
0000
0000
0000
0000
0000
ENDCHAR
STARTCHAR POUND SIGN
ENCODING 163
SWIDTH 500 0
DWIDTH 12 0
BBX 12 24 0 -2
BITMAP
0000
0000
0000
0000
0000
0f80
1fc0
3dc0
3800
3800
3c00
7fc0
7fc0
1c00
1c00
3f80
7fc0
79e0
70e0
0000
0000
0000
0000
0000
ENDCHAR
STARTCHAR CURRENCY SIGN
ENCODING 164
SWIDTH 500 0
DWIDTH 12 0
BBX 12 24 0 -2
BITMAP
0000
0000
0000
0000
0000
0000
0000
7070
7ff0
3fe0
1dc0
38e0
38e0
1dc0
3fe0
7ff0
7070
0000
0000
0000
0000
0000
0000
0000
ENDCHAR
STARTCHAR YEN SIGN
ENCODING 165
SWIDTH 500 0
DWIDTH 12 0
BBX 12 24 0 -2
BITMAP
0000
0000
0000
0000
0000
38e0
3de0
1dc0
1fc0
0f80
3fe0
3fe0
0700
3fe0
3fe0
0700
0700
0700
0700
0000
0000
0000
0000
0000
ENDCHAR
STARTCHAR BROKEN BAR
ENCODING 166
SWIDTH 500 0
DWIDTH 12 0
BBX 12 24 0 -2
BITMAP
0000
0700
0700
0700
0700
0700
0700
0700
0700
0700
0700
0000
0000
0700
0700
0700
0700
0700
0700
0700
0700
0700
0700
0000
ENDCHAR
STARTCHAR PARAGRAPH SIGN
ENCODING 167
SWIDTH 500 0
DWIDTH 12 0
BBX 12 24 0 -2
BITMAP
0000
0000
0000
0000
1f80
3fc0
79e0
70e0
7800
3f80
3fc0
70e0
70e0
3fc0
1fc0
01e0
70e0
79e0
3fc0
1f80
0000
0000
0000
0000
ENDCHAR
STARTCHAR DIAERESIS
ENCODING 168
SWIDTH 500 0
DWIDTH 12 0
BBX 12 24 0 -2
BITMAP
0000
39c0
39c0
0000
0000
0000
0000
0000
0000
0000
0000
0000
0000
0000
0000
0000
0000
0000
0000
0000
0000
0000
0000
0000
ENDCHAR
STARTCHAR COPYRIGHT SIGN
ENCODING 169
SWIDTH 500 0
DWIDTH 12 0
BBX 12 24 0 -2
BITMAP
0000
0000
0000
0000
1f80
3fc0
70e0
6060
ef70
fff0
f9f0
f870
f9f0
fff0
ef70
6070
70e0
3fc0
1f80
0000
0000
0000
0000
0000
ENDCHAR
STARTCHAR FEMININE ORDINAL INDICATOR
ENCODING 170
SWIDTH 500 0
DWIDTH 12 0
BBX 12 24 0 -2
BITMAP
1f80
3fc0
39c0
0fc0
1fc0
39c0
3fc0
1fc0
0000
3fc0
3fc0
0000
0000
0000
0000
0000
0000
0000
0000
0000
0000
0000
0000
0000
ENDCHAR
STARTCHAR LEFT ANGLE QUOTATION MARK
ENCODING 171
SWIDTH 500 0
DWIDTH 12 0
BBX 12 24 0 -2
BITMAP
0000
0000
0000
0000
0770
0ee0
0ee0
1dc0
1dc0
3b80
3b80
7700
7700
3b80
3b80
1dc0
1dc0
0ee0
0ee0
0770
0000
0000
0000
0000
ENDCHAR
STARTCHAR NOT SIGN
ENCODING 172
SWIDTH 500 0
DWIDTH 12 0
BBX 12 24 0 -2
BITMAP
0000
0000
0000
0000
0000
0000
0000
0000
0000
0000
0000
7ff0
7ff0
0070
0070
0070
0000
0000
0000
0000
0000
0000
0000
0000
ENDCHAR
STARTCHAR SOFT HYPHEN
ENCODING 173
SWIDTH 500 0
DWIDTH 12 0
BBX 12 24 0 -2
BITMAP
0000
0000
0000
0000
0000
0000
0000
0000
0000
0000
0000
0000
7ff0
7ff0
0000
0000
0000
0000
0000
0000
0000
0000
0000
0000
ENDCHAR
STARTCHAR REGISTERED TRADE MARK SIGN
ENCODING 174
SWIDTH 500 0
DWIDTH 12 0
BBX 12 24 0 -2
BITMAP
0000
0000
0000
0000
1f80
3fc0
79e0
70e0
ff70
dff0
d9f0
df70
df70
d9f0
f9f0
70f0
79e0
3fc0
1f80
0000
0000
0000
0000
0000
ENDCHAR
STARTCHAR MACRON
ENCODING 175
SWIDTH 500 0
DWIDTH 12 0
BBX 12 24 0 -2
BITMAP
7ff0
7ff0
0000
0000
0000
0000
0000
0000
0000
0000
0000
0000
0000
0000
0000
0000
0000
0000
0000
0000
0000
0000
0000
0000
ENDCHAR
STARTCHAR DEGREE SIGN, RING ABOVE
ENCODING 176
SWIDTH 500 0
DWIDTH 12 0
BBX 12 24 0 -2
BITMAP
0780
0fc0
0fc0
0780
0000
0000
0000
0000
0000
0000
0000
0000
0000
0000
0000
0000
0000
0000
0000
0000
0000
0000
0000
0000
ENDCHAR
STARTCHAR PLUS-MINUS SIGN
ENCODING 177
SWIDTH 500 0
DWIDTH 12 0
BBX 12 24 0 -2
BITMAP
0000
0000
0000
0000
0000
0000
0700
0700
0700
3fe0
3fe0
0700
0700
0700
0000
0000
3fe0
3fe0
0000
0000
0000
0000
0000
0000
ENDCHAR
STARTCHAR SUPERSCRIPT TWO
ENCODING 178
SWIDTH 500 0
DWIDTH 12 0
BBX 12 24 0 -2
BITMAP
0fc0
1fe0
1ce0
01e0
03c0
0780
0f00
1e00
1fe0
1fe0
0000
0000
0000
0000
0000
0000
0000
0000
0000
0000
0000
0000
0000
0000
ENDCHAR
STARTCHAR SUPERSCRIPT THREE
ENCODING 179
SWIDTH 500 0
DWIDTH 12 0
BBX 12 24 0 -2
BITMAP
0fc0
1fe0
1ce0
00e0
07e0
07e0
00e0
1ce0
1fe0
0fc0
0000
0000
0000
0000
0000
0000
0000
0000
0000
0000
0000
0000
0000
0000
ENDCHAR
STARTCHAR ACUTE ACCENT
ENCODING 180
SWIDTH 500 0
DWIDTH 12 0
BBX 12 24 0 -2
BITMAP
0380
0780
0e00
0000
0000
0000
0000
0000
0000
0000
0000
0000
0000
0000
0000
0000
0000
0000
0000
0000
0000
0000
0000
0000
ENDCHAR
STARTCHAR MICRO SIGN
ENCODING 181
SWIDTH 500 0
DWIDTH 12 0
BBX 12 24 0 -2
BITMAP
0000
0000
0000
0000
0000
0000
0000
0000
0000
0ee0
0ee0
0ee0
0ee0
1fc0
1dc0
1dc0
1fe0
3fe0
38e0
3800
7800
7000
7000
7000
ENDCHAR
STARTCHAR PILCROW SIGN
ENCODING 182
SWIDTH 500 0
DWIDTH 12 0
BBX 12 24 0 -2
BITMAP
0000
0000
0000
0000
0000
1fe0
3f60
7f60
7f60
7f60
7f60
3f60
1f60
0160
0160
0160
0160
0160
01e0
0000
0000
0000
0000
0000
ENDCHAR
STARTCHAR MIDDLE DOT
ENCODING 183
SWIDTH 500 0
DWIDTH 12 0
BBX 12 24 0 -2
BITMAP
0000
0000
0000
0000
0000
0000
0000
0000
0000
0000
0700
0f80
0f80
0700
0000
0000
0000
0000
0000
0000
0000
0000
0000
0000
ENDCHAR
STARTCHAR CEDILLA
ENCODING 184
SWIDTH 500 0
DWIDTH 12 0
BBX 12 24 0 -2
BITMAP
0000
0000
0000
0000
0000
0000
0000
0000
0000
0000
0000
0000
0000
0000
0000
0000
0000
0000
0700
0700
0780
01c0
0fc0
0f80
ENDCHAR
STARTCHAR SUPERSCRIPT ONE
ENCODING 185
SWIDTH 500 0
DWIDTH 12 0
BBX 12 24 0 -2
BITMAP
0700
0f00
1f00
0700
0700
0700
0700
0700
1fc0
1fc0
0000
0000
0000
0000
0000
0000
0000
0000
0000
0000
0000
0000
0000
0000
ENDCHAR
STARTCHAR MASCULINE ORDINAL INDICATOR
ENCODING 186
SWIDTH 500 0
DWIDTH 12 0
BBX 12 24 0 -2
BITMAP
0fc0
1fe0
1ce0
1ce0
1ce0
1ce0
1fe0
0fc0
0000
1fe0
1fe0
0000
0000
0000
0000
0000
0000
0000
0000
0000
0000
0000
0000
0000
ENDCHAR
STARTCHAR RIGHT ANGLE QUOTATION MARK
ENCODING 187
SWIDTH 500 0
DWIDTH 12 0
BBX 12 24 0 -2
BITMAP
0000
0000
0000
0000
ee00
7700
7700
3b80
3b80
1dc0
1dc0
0ee0
0ee0
1dc0
1dc0
3b80
3b80
7700
7700
ee00
0000
0000
0000
0000
ENDCHAR
STARTCHAR VULGAR FRACTION ONE QUARTER
ENCODING 188
SWIDTH 500 0
DWIDTH 12 0
BBX 12 24 0 -2
BITMAP
0000
0000
1c00
3c00
1c00
1c00
1c00
1c70
3ef0
3fe0
03c0
0780
0f00
1ee0
3de0
7be0
77e0
07f0
07f0
00e0
00e0
0000
0000
0000
ENDCHAR
STARTCHAR VULGAR FRACTION ONE HALF
ENCODING 189
SWIDTH 500 0
DWIDTH 12 0
BBX 12 24 0 -2
BITMAP
0000
0000
1c00
3c00
1c00
1c00
1c00
1c70
3ef0
3fe0
03c0
0780
0f00
1fe0
3ff0
7bf0
7070
00e0
01c0
03f0
03f0
0000
0000
0000
ENDCHAR
STARTCHAR VULGAR FRACTION THREE QUARTERS
ENCODING 190
SWIDTH 500 0
DWIDTH 12 0
BBX 12 24 0 -2
BITMAP
0000
0000
3e00
3f00
0700
1e00
1e00
0770
3ff0
3fe0
03c0
0780
0f00
1ee0
3de0
7be0
77e0
07f0
07f0
00e0
00e0
0000
0000
0000
ENDCHAR
STARTCHAR INVERTED QUESTION MARK
ENCODING 191
SWIDTH 500 0
DWIDTH 12 0
BBX 12 24 0 -2
BITMAP
0000
0000
0000
0000
0700
0f80
0700
0000
0000
0700
0700
0700
0e00
1c00
3800
3860
3de0
1fc0
0f80
0000
0000
0000
0000
0000
ENDCHAR
STARTCHAR CAPITAL LETTER A WITH GRAVE ACCENT
ENCODING 192
SWIDTH 500 0
DWIDTH 12 0
BBX 12 24 0 -2
BITMAP
0e00
0f00
0380
0000
0000
1f80
3fc0
79e0
70e0
70e0
70e0
7fe0
7fe0
70e0
70e0
70e0
70e0
70e0
70e0
0000
0000
0000
0000
0000
ENDCHAR
STARTCHAR CAPITAL LETTER A WITH ACUTE ACCENT
ENCODING 193
SWIDTH 500 0
DWIDTH 12 0
BBX 12 24 0 -2
BITMAP
0700
0f00
1c00
0000
0000
1f80
3fc0
79e0
70e0
70e0
70e0
7fe0
7fe0
70e0
70e0
70e0
70e0
70e0
70e0
0000
0000
0000
0000
0000
ENDCHAR
STARTCHAR CAPITAL LETTER A WITH CIRCUMFLEX ACCENT
ENCODING 194
SWIDTH 500 0
DWIDTH 12 0
BBX 12 24 0 -2
BITMAP
0f00
1f80
39c0
0000
0000
1f80
3fc0
79e0
70e0
70e0
70e0
7fe0
7fe0
70e0
70e0
70e0
70e0
70e0
70e0
0000
0000
0000
0000
0000
ENDCHAR
STARTCHAR CAPITAL LETTER A WITH TILDE
ENCODING 195
SWIDTH 500 0
DWIDTH 12 0
BBX 12 24 0 -2
BITMAP
3c60
7ee0
67c0
0000
0000
1f80
3fc0
79e0
70e0
70e0
70e0
7fe0
7fe0
70e0
70e0
70e0
70e0
70e0
70e0
0000
0000
0000
0000
0000
ENDCHAR
STARTCHAR CAPITAL LETTER A WITH DIAERESIS
ENCODING 196
SWIDTH 500 0
DWIDTH 12 0
BBX 12 24 0 -2
BITMAP
0000
39c0
39c0
0000
0000
1f80
3fc0
79e0
70e0
70e0
70e0
7fe0
7fe0
70e0
70e0
70e0
70e0
70e0
70e0
0000
0000
0000
0000
0000
ENDCHAR
STARTCHAR CAPITAL LETTER A WITH RING ABOVE
ENCODING 197
SWIDTH 500 0
DWIDTH 12 0
BBX 12 24 0 -2
BITMAP
0f00
1f80
1f80
0f00
0000
1f80
3fc0
79e0
70e0
70e0
70e0
7fe0
7fe0
70e0
70e0
70e0
70e0
70e0
70e0
0000
0000
0000
0000
0000
ENDCHAR
STARTCHAR CAPITAL DIPHTHONG A WITH E
ENCODING 198
SWIDTH 500 0
DWIDTH 12 0
BBX 12 24 0 -2
BITMAP
0000
0000
0000
0000
0000
1ff0
1ff0
3b80
3b80
7380
73f0
7ff0
7f80
7380
7380
7380
7380
73f0
73f0
0000
0000
0000
0000
0000
ENDCHAR
STARTCHAR CAPITAL LETTER C WITH CEDILLA
ENCODING 199
SWIDTH 500 0
DWIDTH 12 0
BBX 12 24 0 -2
BITMAP
0000
0000
0000
0000
0000
1f80
3fc0
79e0
70e0
7000
7000
7000
7000
7000
7000
70e0
79e0
3fc0
1f80
0e00
0f00
0380
1f80
1f00
ENDCHAR
STARTCHAR CAPITAL LETTER E WITH GRAVE ACCENT
ENCODING 200
SWIDTH 500 0
DWIDTH 12 0
BBX 12 24 0 -2
BITMAP
0e00
0f00
0380
0000
0000
7fe0
7fe0
7000
7000
7000
7000
7f80
7f80
7000
7000
7000
7000
7fe0
7fe0
0000
0000
0000
0000
0000
ENDCHAR
STARTCHAR CAPITAL LETTER E WITH ACUTE ACCENT
ENCODING 201
SWIDTH 500 0
DWIDTH 12 0
BBX 12 24 0 -2
BITMAP
0700
0f00
1c00
0000
0000
7fe0
7fe0
7000
7000
7000
7000
7f80
7f80
7000
7000
7000
7000
7fe0
7fe0
0000
0000
0000
0000
0000
ENDCHAR
STARTCHAR CAPITAL LETTER E WITH CIRCUMFLEX ACCENT
ENCODING 202
SWIDTH 500 0
DWIDTH 12 0
BBX 12 24 0 -2
BITMAP
0f00
1f80
39c0
0000
0000
7fe0
7fe0
7000
7000
7000
7000
7f80
7f80
7000
7000
7000
7000
7fe0
7fe0
0000
0000
0000
0000
0000
ENDCHAR
STARTCHAR CAPITAL LETTER E WITH DIAERESIS
ENCODING 203
SWIDTH 500 0
DWIDTH 12 0
BBX 12 24 0 -2
BITMAP
0000
39c0
39c0
0000
0000
7fe0
7fe0
7000
7000
7000
7000
7f80
7f80
7000
7000
7000
7000
7fe0
7fe0
0000
0000
0000
0000
0000
ENDCHAR
STARTCHAR CAPITAL LETTER I WITH GRAVE ACCENT
ENCODING 204
SWIDTH 500 0
DWIDTH 12 0
BBX 12 24 0 -2
BITMAP
0e00
0f00
0380
0000
0000
1fc0
1fc0
0700
0700
0700
0700
0700
0700
0700
0700
0700
0700
1fc0
1fc0
0000
0000
0000
0000
0000
ENDCHAR
STARTCHAR CAPITAL LETTER I WITH ACUTE ACCENT
ENCODING 205
SWIDTH 500 0
DWIDTH 12 0
BBX 12 24 0 -2
BITMAP
0380
0780
0e00
0000
0000
1fc0
1fc0
0700
0700
0700
0700
0700
0700
0700
0700
0700
0700
1fc0
1fc0
0000
0000
0000
0000
0000
ENDCHAR
STARTCHAR CAPITAL LETTER I WITH CIRCUMFLEX ACCENT
ENCODING 206
SWIDTH 500 0
DWIDTH 12 0
BBX 12 24 0 -2
BITMAP
0700
0f80
1dc0
0000
0000
1fc0
1fc0
0700
0700
0700
0700
0700
0700
0700
0700
0700
0700
1fc0
1fc0
0000
0000
0000
0000
0000
ENDCHAR
STARTCHAR CAPITAL LETTER I WITH DIAERESIS
ENCODING 207
SWIDTH 500 0
DWIDTH 12 0
BBX 12 24 0 -2
BITMAP
0000
1dc0
1dc0
0000
0000
1fc0
1fc0
0700
0700
0700
0700
0700
0700
0700
0700
0700
0700
1fc0
1fc0
0000
0000
0000
0000
0000
ENDCHAR
STARTCHAR CAPITAL ICELANDIC LETTER ETH
ENCODING 208
SWIDTH 500 0
DWIDTH 12 0
BBX 12 24 0 -2
BITMAP
0000
0000
0000
0000
0000
7f80
7fc0
71e0
70e0
70e0
70e0
fee0
fee0
70e0
70e0
70e0
71e0
7fc0
7f80
0000
0000
0000
0000
0000
ENDCHAR
STARTCHAR CAPITAL LETTER N WITH TILDE
ENCODING 209
SWIDTH 500 0
DWIDTH 12 0
BBX 12 24 0 -2
BITMAP
3c60
7ee0
67c0
0000
0000
70e0
78e0
78e0
7ce0
7ce0
7ee0
7ee0
77e0
77e0
73e0
73e0
71e0
71e0
70e0
0000
0000
0000
0000
0000
ENDCHAR
STARTCHAR CAPITAL LETTER O WITH GRAVE ACCENT
ENCODING 210
SWIDTH 500 0
DWIDTH 12 0
BBX 12 24 0 -2
BITMAP
0e00
0f00
0380
0000
0000
1f80
3fc0
79e0
70e0
70e0
70e0
70e0
70e0
70e0
70e0
70e0
79e0
3fc0
1f80
0000
0000
0000
0000
0000
ENDCHAR
STARTCHAR CAPITAL LETTER O WITH ACUTE ACCENT
ENCODING 211
SWIDTH 500 0
DWIDTH 12 0
BBX 12 24 0 -2
BITMAP
0700
0f00
1c00
0000
0000
1f80
3fc0
79e0
70e0
70e0
70e0
70e0
70e0
70e0
70e0
70e0
79e0
3fc0
1f80
0000
0000
0000
0000
0000
ENDCHAR
STARTCHAR CAPITAL LETTER O WITH CIRCUMFLEX ACCENT
ENCODING 212
SWIDTH 500 0
DWIDTH 12 0
BBX 12 24 0 -2
BITMAP
0f00
1f80
39c0
0000
0000
1f80
3fc0
79e0
70e0
70e0
70e0
70e0
70e0
70e0
70e0
70e0
79e0
3fc0
1f80
0000
0000
0000
0000
0000
ENDCHAR
STARTCHAR CAPITAL LETTER O WITH TILDE
ENCODING 213
SWIDTH 500 0
DWIDTH 12 0
BBX 12 24 0 -2
BITMAP
3c60
7ee0
67c0
0000
0000
1f80
3fc0
79e0
70e0
70e0
70e0
70e0
70e0
70e0
70e0
70e0
79e0
3fc0
1f80
0000
0000
0000
0000
0000
ENDCHAR
STARTCHAR CAPITAL LETTER O WITH DIAERESIS
ENCODING 214
SWIDTH 500 0
DWIDTH 12 0
BBX 12 24 0 -2
BITMAP
0000
39c0
39c0
0000
0000
1f80
3fc0
79e0
70e0
70e0
70e0
70e0
70e0
70e0
70e0
70e0
79e0
3fc0
1f80
0000
0000
0000
0000
0000
ENDCHAR
STARTCHAR MULTIPLICATION SIGN
ENCODING 215
SWIDTH 500 0
DWIDTH 12 0
BBX 12 24 0 -2
BITMAP
0000
0000
0000
0000
0000
0000
0000
0000
70e0
79e0
3fc0
1f80
0f00
1f80
3fc0
79e0
70e0
0000
0000
0000
0000
0000
0000
0000
ENDCHAR
STARTCHAR CAPITAL LETTER O WITH OBLIQUE STROKE
ENCODING 216
SWIDTH 500 0
DWIDTH 12 0
BBX 12 24 0 -2
BITMAP
0000
0000
0000
0000
0000
1fe0
3fe0
79e0
71e0
73e0
73e0
77e0
7ee0
7ce0
7ce0
78e0
79e0
7fc0
7f80
0000
0000
0000
0000
0000
ENDCHAR
STARTCHAR CAPITAL LETTER U WITH GRAVE ACCENT
ENCODING 217
SWIDTH 500 0
DWIDTH 12 0
BBX 12 24 0 -2
BITMAP
0e00
0f00
0380
0000
0000
70e0
70e0
70e0
70e0
70e0
70e0
70e0
70e0
70e0
70e0
70e0
79e0
3fc0
1f80
0000
0000
0000
0000
0000
ENDCHAR
STARTCHAR CAPITAL LETTER U WITH ACUTE ACCENT
ENCODING 218
SWIDTH 500 0
DWIDTH 12 0
BBX 12 24 0 -2
BITMAP
0700
0f00
1c00
0000
0000
70e0
70e0
70e0
70e0
70e0
70e0
70e0
70e0
70e0
70e0
70e0
79e0
3fc0
1f80
0000
0000
0000
0000
0000
ENDCHAR
STARTCHAR CAPITAL LETTER U WITH CIRCUMFLEX ACCENT
ENCODING 219
SWIDTH 500 0
DWIDTH 12 0
BBX 12 24 0 -2
BITMAP
0f00
1f80
39c0
0000
0000
70e0
70e0
70e0
70e0
70e0
70e0
70e0
70e0
70e0
70e0
70e0
79e0
3fc0
1f80
0000
0000
0000
0000
0000
ENDCHAR
STARTCHAR CAPITAL LETTER U WITH DIAERESIS
ENCODING 220
SWIDTH 500 0
DWIDTH 12 0
BBX 12 24 0 -2
BITMAP
0000
39c0
39c0
0000
0000
70e0
70e0
70e0
70e0
70e0
70e0
70e0
70e0
70e0
70e0
70e0
79e0
3fc0
1f80
0000
0000
0000
0000
0000
ENDCHAR
STARTCHAR CAPITAL LETTER Y WITH ACUTE ACCENT
ENCODING 221
SWIDTH 500 0
DWIDTH 12 0
BBX 12 24 0 -2
BITMAP
0700
0f00
1c00
0000
0000
e0e0
e0e0
71c0
71c0
3b80
3f80
1f00
0e00
0e00
0e00
0e00
0e00
0e00
0e00
0000
0000
0000
0000
0000
ENDCHAR
STARTCHAR CAPITAL ICELANDIC LETTER THORN
ENCODING 222
SWIDTH 500 0
DWIDTH 12 0
BBX 12 24 0 -2
BITMAP
0000
0000
0000
0000
0000
39c0
3be0
3f70
3e70
3c70
3870
3870
3c70
3e70
3f70
3be0
39c0
3800
3800
7000
6000
0000
0000
0000
ENDCHAR
STARTCHAR SMALL GERMAN LETTER SHARP s
ENCODING 223
SWIDTH 500 0
DWIDTH 12 0
BBX 12 24 0 -2
BITMAP
0000
0000
0000
0000
0000
1f80
3fc0
79e0
70e0
70e0
71e0
77c0
77e0
71e0
70e0
70e0
71e0
77c0
7780
0000
0000
0000
0000
0000
ENDCHAR
STARTCHAR SMALL LETTER a WITH GRAVE ACCENT
ENCODING 224
SWIDTH 500 0
DWIDTH 12 0
BBX 12 24 0 -2
BITMAP
0000
0000
0000
0e00
0f00
0380
0000
0000
0f80
1fc0
38e0
00e0
0fe0
3fe0
70e0
71e0
73e0
7fe0
3ee0
0000
0000
0000
0000
0000
ENDCHAR
STARTCHAR SMALL LETTER a WITH ACUTE ACCENT
ENCODING 225
SWIDTH 500 0
DWIDTH 12 0
BBX 12 24 0 -2
BITMAP
0000
0000
0000
0380
0780
0e00
0000
0000
0f80
1fc0
38e0
00e0
0fe0
3fe0
70e0
71e0
73e0
7fe0
3ee0
0000
0000
0000
0000
0000
ENDCHAR
STARTCHAR SMALL LETTER a WITH CIRCUMFLEX ACCENT
ENCODING 226
SWIDTH 500 0
DWIDTH 12 0
BBX 12 24 0 -2
BITMAP
0000
0000
0000
0f00
1f80
39c0
0000
0000
0f80
1fc0
38e0
00e0
0fe0
3fe0
70e0
71e0
73e0
7fe0
3ee0
0000
0000
0000
0000
0000
ENDCHAR
STARTCHAR SMALL LETTER a WITH TILDE
ENCODING 227
SWIDTH 500 0
DWIDTH 12 0
BBX 12 24 0 -2
BITMAP
0000
0000
0000
3c60
7ee0
67c0
0000
0000
0f80
1fc0
38e0
00e0
0fe0
3fe0
70e0
71e0
73e0
7fe0
3ee0
0000
0000
0000
0000
0000
ENDCHAR
STARTCHAR SMALL LETTER a WITH DIAERESIS
ENCODING 228
SWIDTH 500 0
DWIDTH 12 0
BBX 12 24 0 -2
BITMAP
0000
0000
0000
0000
1dc0
1dc0
0000
0000
0f80
1fc0
38e0
00e0
0fe0
3fe0
70e0
71e0
73e0
7fe0
3ee0
0000
0000
0000
0000
0000
ENDCHAR
STARTCHAR SMALL LETTER a WITH RING ABOVE
ENCODING 229
SWIDTH 500 0
DWIDTH 12 0
BBX 12 24 0 -2
BITMAP
0000
0000
0000
0f00
1f80
1f80
0f00
0000
0f80
1fc0
38e0
00e0
0fe0
3fe0
70e0
71e0
73e0
7fe0
3ee0
0000
0000
0000
0000
0000
ENDCHAR
STARTCHAR SMALL DIPHTHONG a WITH e
ENCODING 230
SWIDTH 500 0
DWIDTH 12 0
BBX 12 24 0 -2
BITMAP
0000
0000
0000
0000
0000
0000
0000
0000
3de0
7ff0
6770
0770
1ff0
3fe0
7700
7700
7770
7ff0
3fe0
0000
0000
0000
0000
0000
ENDCHAR
STARTCHAR SMALL LETTER c WITH CEDILLA
ENCODING 231
SWIDTH 500 0
DWIDTH 12 0
BBX 12 24 0 -2
BITMAP
0000
0000
0000
0000
0000
0000
0000
0000
0000
0fc0
3fc0
78e0
70e0
7000
7000
7000
78e0
3fe0
1fc0
0e00
0f00
0380
1f80
1f00
ENDCHAR
STARTCHAR SMALL LETTER e WITH GRAVE ACCENT
ENCODING 232
SWIDTH 500 0
DWIDTH 12 0
BBX 12 24 0 -2
BITMAP
0000
0000
0000
0000
0e00
0f00
0380
0000
0000
1f80
3fc0
78e0
70e0
7fe0
7fe0
7000
70e0
3fe0
1fc0
0000
0000
0000
0000
0000
ENDCHAR
STARTCHAR SMALL LETTER e WITH ACUTE ACCENT
ENCODING 233
SWIDTH 500 0
DWIDTH 12 0
BBX 12 24 0 -2
BITMAP
0000
0000
0000
0000
0700
0f00
1c00
0000
0000
1f80
3fc0
78e0
70e0
7fe0
7fe0
7000
70e0
3fe0
1fc0
0000
0000
0000
0000
0000
ENDCHAR
STARTCHAR SMALL LETTER e WITH CIRCUMFLEX ACCENT
ENCODING 234
SWIDTH 500 0
DWIDTH 12 0
BBX 12 24 0 -2
BITMAP
0000
0000
0000
0000
0f00
1f80
39c0
0000
0000
1f80
3fc0
78e0
70e0
7fe0
7fe0
7000
70e0
3fe0
1fc0
0000
0000
0000
0000
0000
ENDCHAR
STARTCHAR SMALL LETTER e WITH DIAERESIS
ENCODING 235
SWIDTH 500 0
DWIDTH 12 0
BBX 12 24 0 -2
BITMAP
0000
0000
0000
0000
0000
39c0
39c0
0000
0000
1f80
3fc0
78e0
70e0
7fe0
7fe0
7000
70e0
3fe0
1fc0
0000
0000
0000
0000
0000
ENDCHAR
STARTCHAR SMALL LETTER i WITH GRAVE ACCENT
ENCODING 236
SWIDTH 500 0
DWIDTH 12 0
BBX 12 24 0 -2
BITMAP
0000
0000
0000
0000
0e00
0f00
0380
0000
0000
0700
0700
0700
0700
0700
0700
0700
0700
0700
0700
0000
0000
0000
0000
0000
ENDCHAR
STARTCHAR SMALL LETTER i WITH ACUTE ACCENT
ENCODING 237
SWIDTH 500 0
DWIDTH 12 0
BBX 12 24 0 -2
BITMAP
0000
0000
0000
0000
0380
0780
0e00
0000
0000
0700
0700
0700
0700
0700
0700
0700
0700
0700
0700
0000
0000
0000
0000
0000
ENDCHAR
STARTCHAR SMALL LETTER i WITH CIRCUMFLEX ACCENT
ENCODING 238
SWIDTH 500 0
DWIDTH 12 0
BBX 12 24 0 -2
BITMAP
0000
0000
0000
0000
0700
0f80
1dc0
0000
0000
0700
0700
0700
0700
0700
0700
0700
0700
0700
0700
0000
0000
0000
0000
0000
ENDCHAR
STARTCHAR SMALL LETTER i WITH DIAERESIS
ENCODING 239
SWIDTH 500 0
DWIDTH 12 0
BBX 12 24 0 -2
BITMAP
0000
0000
0000
0000
0000
1dc0
1dc0
0000
0000
0700
0700
0700
0700
0700
0700
0700
0700
0700
0700
0000
0000
0000
0000
0000
ENDCHAR
STARTCHAR SMALL ICELANDIC LETTER ETH
ENCODING 240
SWIDTH 500 0
DWIDTH 12 0
BBX 12 24 0 -2
BITMAP
0000
0000
0000
0000
0000
3de0
3fe0
0780
1fc0
7de0
70e0
1fe0
3fe0
78e0
70e0
70e0
79e0
3fc0
1f80
0000
0000
0000
0000
0000
ENDCHAR
STARTCHAR SMALL LETTER n WITH TILDE
ENCODING 241
SWIDTH 500 0
DWIDTH 12 0
BBX 12 24 0 -2
BITMAP
0000
0000
0000
0000
3c60
7ee0
67c0
0000
0000
7780
7fc0
7ce0
78e0
70e0
70e0
70e0
70e0
70e0
70e0
0000
0000
0000
0000
0000
ENDCHAR
STARTCHAR SMALL LETTER o WITH GRAVE ACCENT
ENCODING 242
SWIDTH 500 0
DWIDTH 12 0
BBX 12 24 0 -2
BITMAP
0000
0000
0000
0000
0e00
0f00
0380
0000
0000
1f80
3fc0
79e0
70e0
70e0
70e0
70e0
79e0
3fc0
1f80
0000
0000
0000
0000
0000
ENDCHAR
STARTCHAR SMALL LETTER o WITH ACUTE ACCENT
ENCODING 243
SWIDTH 500 0
DWIDTH 12 0
BBX 12 24 0 -2
BITMAP
0000
0000
0000
0000
0700
0f00
1c00
0000
0000
1f80
3fc0
79e0
70e0
70e0
70e0
70e0
79e0
3fc0
1f80
0000
0000
0000
0000
0000
ENDCHAR
STARTCHAR SMALL LETTER o WITH CIRCUMFLEX ACCENT
ENCODING 244
SWIDTH 500 0
DWIDTH 12 0
BBX 12 24 0 -2
BITMAP
0000
0000
0000
0000
0f00
1f80
39c0
0000
0000
1f80
3fc0
79e0
70e0
70e0
70e0
70e0
79e0
3fc0
1f80
0000
0000
0000
0000
0000
ENDCHAR
STARTCHAR SMALL LETTER o WITH TILDE
ENCODING 245
SWIDTH 500 0
DWIDTH 12 0
BBX 12 24 0 -2
BITMAP
0000
0000
0000
0000
3c60
7ee0
67c0
0000
0000
1f80
3fc0
79e0
70e0
70e0
70e0
70e0
79e0
3fc0
1f80
0000
0000
0000
0000
0000
ENDCHAR
STARTCHAR SMALL LETTER o WITH DIAERESIS
ENCODING 246
SWIDTH 500 0
DWIDTH 12 0
BBX 12 24 0 -2
BITMAP
0000
0000
0000
0000
0000
39c0
39c0
0000
0000
1f80
3fc0
79e0
70e0
70e0
70e0
70e0
79e0
3fc0
1f80
0000
0000
0000
0000
0000
ENDCHAR
STARTCHAR DIVISION SIGN
ENCODING 247
SWIDTH 500 0
DWIDTH 12 0
BBX 12 24 0 -2
BITMAP
0000
0000
0000
0000
0000
0000
0000
0700
0f80
0700
0000
7ff0
7ff0
0000
0700
0f80
0700
0000
0000
0000
0000
0000
0000
0000
ENDCHAR
STARTCHAR SMALL LETTER o WITH OBLIQUE STROKE
ENCODING 248
SWIDTH 500 0
DWIDTH 12 0
BBX 12 24 0 -2
BITMAP
0000
0000
0000
0000
0000
0000
0000
0000
0000
1fe0
3fe0
7bc0
77e0
77e0
7fe0
7ee0
3de0
7fc0
7f80
0000
0000
0000
0000
0000
ENDCHAR
STARTCHAR SMALL LETTER u WITH GRAVE ACCENT
ENCODING 249
SWIDTH 500 0
DWIDTH 12 0
BBX 12 24 0 -2
BITMAP
0000
0000
0000
0000
0e00
0f00
0380
0000
0000
70e0
70e0
70e0
70e0
70e0
70e0
71e0
7be0
3fe0
1ee0
0000
0000
0000
0000
0000
ENDCHAR
STARTCHAR SMALL LETTER u WITH ACUTE ACCENT
ENCODING 250
SWIDTH 500 0
DWIDTH 12 0
BBX 12 24 0 -2
BITMAP
0000
0000
0000
0000
0700
0f00
1c00
0000
0000
70e0
70e0
70e0
70e0
70e0
70e0
71e0
7be0
3fe0
1ee0
0000
0000
0000
0000
0000
ENDCHAR
STARTCHAR SMALL LETTER u WITH CIRCUMFLEX ACCENT
ENCODING 251
SWIDTH 500 0
DWIDTH 12 0
BBX 12 24 0 -2
BITMAP
0000
0000
0000
0000
0f00
1f80
39c0
0000
0000
70e0
70e0
70e0
70e0
70e0
70e0
71e0
7be0
3fe0
1ee0
0000
0000
0000
0000
0000
ENDCHAR
STARTCHAR SMALL LETTER u WITH DIAERESIS
ENCODING 252
SWIDTH 500 0
DWIDTH 12 0
BBX 12 24 0 -2
BITMAP
0000
0000
0000
0000
0000
39c0
39c0
0000
0000
70e0
70e0
70e0
70e0
70e0
70e0
71e0
7be0
3fe0
1ee0
0000
0000
0000
0000
0000
ENDCHAR
STARTCHAR SMALL LETTER y WITH ACUTE ACCENT
ENCODING 253
SWIDTH 500 0
DWIDTH 12 0
BBX 12 24 0 -2
BITMAP
0000
0000
0000
0000
0380
0780
0e00
0000
0000
70e0
70e0
70e0
70e0
70e0
70e0
70e0
79e0
3fe0
1fe0
00e0
00e0
01e0
3fc0
1f80
ENDCHAR
STARTCHAR SMALL ICELANDIC LETTER THORN
ENCODING 254
SWIDTH 500 0
DWIDTH 12 0
BBX 12 24 0 -2
BITMAP
0000
0000
0000
0000
0000
7000
7000
7000
7000
7780
7fc0
7de0
78e0
70e0
70e0
71e0
73c0
7f80
7f00
7000
7000
7000
7000
7000
ENDCHAR
STARTCHAR SMALL LETTER y WITH DIAERESIS
ENCODING 255
SWIDTH 500 0
DWIDTH 12 0
BBX 12 24 0 -2
BITMAP
0000
0000
0000
0000
0000
39c0
39c0
0000
0000
70e0
70e0
70e0
70e0
70e0
70e0
70e0
79e0
3fe0
1fe0
00e0
00e0
01e0
3fc0
1f80
ENDCHAR
ENDFONT
